<?xml version="1.0" standalone="no"?>
<!DOCTYPE svg PUBLIC "-//W3C//DTD SVG 20010904//EN"
 "http://www.w3.org/TR/2001/REC-SVG-20010904/DTD/svg10.dtd">
<svg version="1.0" xmlns="http://www.w3.org/2000/svg"
 width="225.000000pt" height="225.000000pt" viewBox="0 0 225.000000 225.000000"
 preserveAspectRatio="xMidYMid meet">

<g transform="translate(0.000000,225.000000) scale(0.100000,-0.100000)"
fill="#000000" stroke="none">
<path d="M811 2220 c-76 -18 -131 -95 -131 -182 l0 -48 -85 0 -85 0 -2 -442
-3 -441 -53 -12 c-362 -82 -537 -489 -347 -810 65 -110 183 -200 320 -242 56
-17 114 -18 930 -18 l870 0 3 982 2 982 -87 3 -88 3 -3 45 c-4 67 -9 85 -38
120 -36 43 -78 62 -134 62 -93 -1 -151 -62 -160 -167 l-5 -60 -87 -3 -88 -3 0
48 c0 57 -32 128 -71 156 -80 58 -200 31 -244 -54 -9 -16 -17 -55 -19 -86 l-4
-58 -91 -3 -91 -3 0 38 c0 99 -43 164 -123 188 -28 8 -51 15 -51 14 -1 -1 -16
-5 -35 -9z m89 -110 c18 -18 20 -33 20 -165 0 -132 -2 -147 -20 -165 -27 -27
-71 -26 -99 4 -24 25 -24 22 -22 229 1 88 18 117 71 117 17 0 39 -9 50 -20z
m520 0 c18 -18 20 -33 20 -163 0 -160 -5 -174 -61 -183 -29 -5 -41 -2 -58 15
-19 19 -21 32 -21 166 0 132 2 147 20 165 11 11 33 20 50 20 17 0 39 -9 50
-20z m519 -6 c19 -24 21 -40 21 -151 0 -89 -4 -132 -15 -152 -24 -48 -72 -55
-110 -16 -24 23 -25 29 -25 158 0 121 2 137 21 161 15 19 30 26 54 26 24 0 39
-7 54 -26z m-1256 -258 c8 -77 32 -122 82 -151 121 -72 255 16 255 168 l0 38
93 -3 c73 -2 92 -6 93 -18 1 -8 2 -36 2 -62 3 -80 78 -148 164 -148 94 1 168
81 168 182 l0 48 90 0 90 0 0 -59 c0 -101 68 -171 165 -171 96 0 165 75 165
179 l0 51 40 0 40 0 0 -890 0 -890 -587 -1 c-324 0 -605 -1 -626 -2 -20 -1
-37 -1 -37 -1 0 1 31 33 69 71 109 111 155 225 154 383 0 151 -48 264 -159
377 -71 73 -194 137 -285 151 l-54 7 -3 398 -2 397 38 0 39 0 6 -54z m57 -868
c182 -82 279 -246 268 -448 -6 -105 -39 -184 -108 -262 -149 -169 -416 -198
-599 -64 -64 47 -103 97 -143 182 -55 117 -50 272 12 394 46 90 165 186 267
216 78 22 235 13 303 -18z"/>
<path d="M760 1395 l0 -45 605 0 605 0 0 45 0 45 -605 0 -605 0 0 -45z"/>
<path d="M920 1055 l0 -45 525 0 525 0 0 45 0 45 -525 0 -525 0 0 -45z"/>
<path d="M1160 715 l0 -45 405 0 405 0 0 45 0 45 -405 0 -405 0 0 -45z"/>
<path d="M1160 383 l0 -48 405 0 405 0 0 48 0 47 -405 0 -405 0 0 -47z"/>
<path d="M649 714 l-84 -84 -82 82 -83 83 -32 -33 -33 -32 83 -82 82 -83 -81
-81 c-73 -73 -80 -83 -68 -101 6 -11 21 -26 32 -32 18 -12 28 -5 101 68 l81
81 83 -82 82 -83 32 33 33 32 -83 82 -82 83 84 85 85 85 -33 32 -33 32 -84
-85z"/>
</g>
</svg>
